<svg width="200" height="40" viewBox="0 0 200 40" fill="none" xmlns="http://www.w3.org/2000/svg">
<path d="M11.7083 26.9479C9.92188 26.9479 8.47397 25.4948 8.47397 23.7083C8.47397 21.9115 9.92188 20.474 11.7083 20.474C13.4948 20.474 14.9427 21.9271 14.9427 23.7083C14.9427 25.4948 13.4948 26.9479 11.7083 26.9479ZM11.7083 21.9687C10.7552 21.9687 9.96876 22.7552 9.96876 23.7083C9.96876 24.6615 10.7552 25.4479 11.7083 25.4479C12.6771 25.4479 13.4479 24.6615 13.4479 23.7083C13.4479 22.7552 12.6615 21.9687 11.7083 21.9687ZM33.5156 26.9479C31.7292 26.9479 30.2761 25.4948 30.2761 23.7083C30.2761 21.9115 31.7292 20.474 33.5156 20.474C35.2969 20.474 36.75 21.9271 36.75 23.7083C36.75 25.4948 35.2969 26.9479 33.5156 26.9479ZM33.5156 21.9687C32.5469 21.9687 31.7604 22.7552 31.7604 23.7083C31.7604 24.6615 32.5469 25.4479 33.5156 25.4479C34.4792 25.4479 35.25 24.6615 35.25 23.7083C35.25 22.7552 34.4792 21.9687 33.5156 21.9687ZM39.8021 21.2917C39.8021 18.1458 37.8386 17.7656 37.8386 17.7656C34.9479 17.3594 29.9896 17.1458 29.9896 17.1458C29.5365 16.3437 27.4323 11.75 26.2083 11.75C25.8021 11.75 17 11.75 15.4583 11.75C13.9011 11.75 11.3438 16.2396 10.7865 17.2656C10.7865 17.2656 8.83334 17.599 7.91147 17.8125C7.40105 17.9323 5.97918 17.9635 5.97918 21.9271H4.73959V23.724H7.71876C7.71876 21.5156 9.50001 19.7344 11.6927 19.7344C13.9011 19.7344 15.6875 21.5156 15.6875 23.724H29.5208C29.5208 21.5156 31.3073 19.7344 33.5156 19.7344C35.7031 19.7344 37.4896 21.5156 37.4896 23.724H40.4219V21.3073L39.8021 21.2917ZM20.7031 16.8437H14.4896C15.3386 14.2292 16.8802 12.3698 17.5469 12.3698C18.375 12.3698 20.7031 12.3698 20.7031 12.3698V16.8437ZM21.8698 16.8437V12.3698C21.8698 12.3698 25.0781 12.3698 25.8906 12.3698C26.724 12.3698 28.5365 16.1667 29.0521 17.1302L21.8698 16.8437Z" fill="white"/>
<path d="M53.443 24.7088C51.9534 24.7088 50.6148 24.4067 49.4221 23.7921C48.2398 23.1828 47.318 22.3338 46.6513 21.2505C45.9846 20.1567 45.6513 18.9119 45.6513 17.5213C45.6513 16.1359 45.9846 14.8963 46.6513 13.813C47.318 12.7192 48.2398 11.8651 49.4221 11.2505C50.6148 10.6411 51.9534 10.3338 53.443 10.3338C54.9117 10.3338 56.1982 10.6411 57.2971 11.2505C58.3909 11.8651 59.193 12.7401 59.693 13.8755L56.5471 15.563C55.8232 14.2869 54.7763 13.6463 53.4013 13.6463C52.344 13.6463 51.469 13.9953 50.7763 14.688C50.094 15.3859 49.7555 16.3286 49.7555 17.5213C49.7555 18.7192 50.094 19.6619 50.7763 20.3546C51.469 21.0369 52.344 21.3755 53.4013 21.3755C54.7867 21.3755 55.8388 20.7401 56.5471 19.4588L59.693 21.188C59.193 22.2869 58.3909 23.1463 57.2971 23.7713C56.1982 24.3963 54.9117 24.7088 53.443 24.7088Z" fill="white"/>
<path d="M67.653 10.3338C69.8197 10.3338 71.4759 10.8494 72.6322 11.8755C73.7989 12.9067 74.3822 14.4536 74.3822 16.5213V24.5005H70.5905V22.7713C69.8249 24.063 68.4082 24.7088 66.3405 24.7088C65.2572 24.7088 64.3197 24.5265 63.528 24.1671C62.7468 23.8078 62.153 23.3078 61.7364 22.6671C61.3197 22.0161 61.1114 21.2869 61.1114 20.4796C61.1114 19.1776 61.5957 18.1567 62.5697 17.4171C63.5541 16.6671 65.0697 16.2921 67.1114 16.2921H70.3197C70.3197 15.4171 70.0489 14.7453 69.5072 14.2713C68.9759 13.7869 68.1791 13.5421 67.1114 13.5421C66.3614 13.5421 65.6218 13.6619 64.903 13.8963C64.1947 14.1359 63.5905 14.4484 63.0905 14.8338L61.6322 12.0213C62.3926 11.4796 63.3041 11.063 64.3614 10.7713C65.4291 10.4796 66.528 10.3338 67.653 10.3338ZM67.3405 21.9796C68.0332 21.9796 68.6426 21.8234 69.1739 21.5005C69.7155 21.1828 70.0957 20.7088 70.3197 20.0838V18.6671H67.5489C65.8822 18.6671 65.0489 19.2088 65.0489 20.2921C65.0489 20.8234 65.2468 21.2401 65.653 21.5421C66.0697 21.8338 66.6322 21.9796 67.3405 21.9796Z" fill="white"/>
<path d="M81.8919 12.3755C82.3763 11.7088 83.0273 11.2036 83.8502 10.8546C84.6836 10.5109 85.6315 10.3338 86.7044 10.3338V14.063C86.2461 14.0369 85.9388 14.0213 85.7877 14.0213C84.6315 14.0213 83.7252 14.3494 83.0586 15.0005C82.4023 15.6411 82.0794 16.6151 82.0794 17.9171V24.5005H78.0377V10.5421H81.8919V12.3755Z" fill="white"/>
<path d="M103.617 10.5421V22.1671C103.617 24.7192 102.95 26.6255 101.617 27.8755C100.284 29.1255 98.3358 29.7505 95.7837 29.7505C94.4347 29.7505 93.1483 29.5838 91.9295 29.2505C90.7212 28.9171 89.7212 28.438 88.9295 27.813L90.5337 24.9171C91.1274 25.4015 91.8722 25.7817 92.7628 26.063C93.6639 26.3546 94.5649 26.5005 95.4712 26.5005C96.8722 26.5005 97.9087 26.1775 98.5753 25.5421C99.242 24.9171 99.5753 23.9692 99.5753 22.688V22.0838C98.518 23.2505 97.0441 23.8338 95.1587 23.8338C93.8774 23.8338 92.7055 23.5578 91.6378 23.0005C90.5805 22.4328 89.742 21.6411 89.117 20.6255C88.492 19.5994 88.1795 18.4171 88.1795 17.0838C88.1795 15.7505 88.492 14.5786 89.117 13.563C89.742 12.5369 90.5805 11.7453 91.6378 11.188C92.7055 10.6203 93.8774 10.3338 95.1587 10.3338C97.1847 10.3338 98.7264 11.0005 99.7837 12.3338V10.5421H103.617ZM95.9712 20.5005C97.0389 20.5005 97.9139 20.188 98.5962 19.563C99.2733 18.9276 99.617 18.0994 99.617 17.0838C99.617 16.0578 99.2733 15.2296 98.5962 14.6046C97.9139 13.9692 97.0389 13.6463 95.9712 13.6463C94.8878 13.6463 93.9972 13.9692 93.3045 14.6046C92.6222 15.2296 92.2837 16.0578 92.2837 17.0838C92.2837 18.0994 92.6222 18.9276 93.3045 19.563C93.9972 20.188 94.8878 20.5005 95.9712 20.5005Z" fill="white"/>
<path d="M113.01 10.3338C115.176 10.3338 116.832 10.8494 117.989 11.8755C119.155 12.9067 119.739 14.4536 119.739 16.5213V24.5005H115.947V22.7713C115.181 24.063 113.765 24.7088 111.697 24.7088C110.614 24.7088 109.676 24.5265 108.885 24.1671C108.103 23.8078 107.51 23.3078 107.093 22.6671C106.676 22.0161 106.468 21.2869 106.468 20.4796C106.468 19.1776 106.952 18.1567 107.926 17.4171C108.911 16.6671 110.426 16.2921 112.468 16.2921H115.676C115.676 15.4171 115.405 14.7453 114.864 14.2713C114.332 13.7869 113.536 13.5421 112.468 13.5421C111.718 13.5421 110.978 13.6619 110.26 13.8963C109.551 14.1359 108.947 14.4484 108.447 14.8338L106.989 12.0213C107.749 11.4796 108.661 11.063 109.718 10.7713C110.786 10.4796 111.885 10.3338 113.01 10.3338ZM112.697 21.9796C113.39 21.9796 113.999 21.8234 114.53 21.5005C115.072 21.1828 115.452 20.7088 115.676 20.0838V18.6671H112.905C111.239 18.6671 110.405 19.2088 110.405 20.2921C110.405 20.8234 110.603 21.2401 111.01 21.5421C111.426 21.8338 111.989 21.9796 112.697 21.9796Z" fill="white"/>
<path d="M141.269 10.3338C143.019 10.3338 144.405 10.8494 145.436 11.8755C146.462 12.9067 146.978 14.4484 146.978 16.5005V24.5005H142.936V17.1255C142.936 16.0161 142.707 15.188 142.248 14.6463C141.79 14.1046 141.134 13.8338 140.29 13.8338C139.332 13.8338 138.571 14.1411 138.019 14.7505C137.478 15.3651 137.207 16.2817 137.207 17.5005V24.5005H133.144V17.1255C133.144 14.9328 132.259 13.8338 130.498 13.8338C129.566 13.8338 128.821 14.1411 128.269 14.7505C127.712 15.3651 127.436 16.2817 127.436 17.5005V24.5005H123.394V10.5421H127.248V12.1463C127.774 11.563 128.415 11.1203 129.165 10.813C129.915 10.4953 130.738 10.3338 131.644 10.3338C132.629 10.3338 133.519 10.5317 134.311 10.9171C135.113 11.3078 135.754 11.8703 136.228 12.6046C136.811 11.8859 137.53 11.3286 138.394 10.938C139.269 10.5369 140.228 10.3338 141.269 10.3338Z" fill="white"/>
<path d="M164.28 17.563C164.28 17.6203 164.259 17.9901 164.217 18.6671H153.634C153.827 19.5317 154.28 20.2088 154.988 20.7088C155.697 21.2088 156.577 21.4588 157.634 21.4588C158.368 21.4588 159.014 21.3546 159.572 21.1463C160.139 20.9276 160.665 20.5786 161.155 20.1046L163.301 22.4588C161.978 23.9588 160.056 24.7088 157.53 24.7088C155.957 24.7088 154.572 24.4067 153.363 23.7921C152.155 23.1828 151.217 22.3338 150.551 21.2505C149.895 20.1567 149.572 18.9119 149.572 17.5213C149.572 16.1463 149.889 14.9119 150.53 13.813C151.181 12.7192 152.077 11.8651 153.217 11.2505C154.353 10.6411 155.618 10.3338 157.009 10.3338C158.384 10.3338 159.618 10.6255 160.717 11.2088C161.827 11.7921 162.697 12.6411 163.322 13.7505C163.957 14.8494 164.28 16.1203 164.28 17.563ZM157.051 13.3963C156.134 13.3963 155.363 13.6567 154.738 14.1671C154.113 14.6828 153.728 15.3911 153.592 16.2921H160.467C160.327 15.4171 159.947 14.7192 159.322 14.188C158.707 13.6619 157.952 13.3963 157.051 13.3963Z" fill="white"/>
</svg>
